<svg height="512" viewBox="0 0 56 58" width="512" xmlns="http://www.w3.org/2000/svg"><g id="Page-1" fill="none" fill-rule="evenodd"><g id="014---Card-Games" fill="rgb(0,0,0)" fill-rule="nonzero"><path id="Shape" d="m6.716 21.821c1.33742692.3286895 2.27926739 1.5257836 2.284 2.903v7.276h10v-7.348c-.0058331-1.3294415.8696681-2.501944 2.146-2.874 1.684-.474 4.679-1.954 5.824-6.536.648372-2.7005532.9938364-5.46493935 1.03-8.242 0-.55228475-.4477153-1-1-1s-1 .44771525-1 1c-.0398644 2.61360668-.3651271 5.2150376-.97 7.758-1.258 5.03-4.63 5.235-5.012 5.242h-12.018c-.395-.006-3.77-.2-5.03-5.242-.59908857-2.5440054-.92427254-5.14480665-.97-7.758 0-.55228475-.44771525-1-1-1s-1 .44771525-1 1c.03616356 2.77706065.38162798 5.5414468 1.03 8.242 1.137 4.549 3.72 6.089 5.686 6.579z"/><circle id="Oval" cx="14" cy="14" r="4"/><path id="Rectangle-path" d="m42 44h2v4h-2z"/><circle id="Oval" cx="44" cy="14" r="4"/><path id="Rectangle-path" d="m32 44h4v2h-4z" transform="matrix(.385 -.923 .923 .385 -20.617 59.07)"/><path id="Shape" d="m53 32v-10c0-1.1045695-.8954305-2-2-2h-13c-.4-.006-3.77-.2-5.03-5.242-.5990886-2.5440054-.9242725-5.14480665-.97-7.758 0-.55228475-.4477153-1-1-1s-1 .44771525-1 1c.0361636 2.77706065.381628 5.5414468 1.03 8.242 1.137 4.549 3.72 6.089 5.686 6.579 1.3374269.3286895 2.2792674 1.5257836 2.284 2.903v7.276h10v-7c0-.5522847.4477153-1 1-1s1 .4477153 1 1v7z"/><path id="Rectangle-path" d="m15 44h2v4h-2z"/><path id="Rectangle-path" d="m9 43.999h4v2h-4z" transform="matrix(.385 -.923 .923 .385 -34.768 37.84)"/><path id="Shape" d="m4 38v16h48v-16zm20.99 9.01-3.45 2.03c-.1513002.0901861-.3238664.1385047-.5.14-.087894-.0035255-.1751108-.0169435-.26-.04-.2562014-.0665549-.4755629-.2319751-.61-.46l-1.17-2v2.32c0 .5522847-.4477153 1-1 1h-4c-.5522847 0-1-.4477153-1-1v-1l-.38.92c-.0999465.2471051-.2951326.4435911-.5415689.5451755-.2464363.1015845-.5233855.0997192-.7684311-.0051755l-3.69-1.54c-.24531576-.0991768-.4405976-.2926112-.5421018-.5369731-.10150419-.2443619-.10074706-.5192279.0021018-.7630269l2.3-5.54c.21638975-.5070735.7991394-.7472909 1.31-.54l3.51 1.46h3.53l3.21-1.89c.2293087-.1343739.5026768-.1719353.7597298-.1043886.257053.0675468.4766422.2346444.6102702.4643886l3.04 5.18c.1341865.227715.1716407.4996674.1040055.7551779-.0676351.2555106-.2347314.4733172-.4640055.6048221zm12.93-3.63-2.3 5.54c-.0999465.2471051-.2951326.4435911-.5415689.5451755-.2464363.1015845-.5233855.0997192-.7684311-.0051755l-3.69-1.54c-.2453158-.0991768-.4405976-.2926112-.5421018-.5369731s-.1007471-.5192279.0021018-.7630269l2.3-5.54c.2163897-.5070735.7991394-.7472909 1.31-.54l3.69 1.54c.2453158.0991768.4405976.2926112.5421018.5369731s.1007471.5192279-.0021018.7630269zm8.08 5.62c0 .5522847-.4477153 1-1 1h-4c-.5522847 0-1-.4477153-1-1v-6c0-.5522847.4477153-1 1-1h4c.5522847 0 1 .4477153 1 1z"/><path id="Rectangle-path" d="m20.244 42.577h2v4h-2z" transform="matrix(.863 -.506 .506 .863 -19.635 16.876)"/><path id="Shape" d="m55 34h-54c-.55228475 0-1 .4477153-1 1v22c0 .5522847.44771525 1 1 1h54c.5522847 0 1-.4477153 1-1v-22c0-.5522847-.4477153-1-1-1zm-1 20c-.0032948 1.1032019-.8967981 1.9967052-2 2h-48c-1.10320187-.0032948-1.9967052-.8967981-2-2v-16c.0032948-1.1032019.89679813-1.9967052 2-2h48c1.1032019.0032948 1.9967052.8967981 2 2z"/><path id="Shape" d="m15 5v-4c0-.55228475-.4477153-1-1-1s-1 .44771525-1 1v4c0 .55228475.4477153 1 1 1s1-.44771525 1-1z"/><path id="Shape" d="m10.366 5.706-2-3.464c-.17736158-.31195078-.50827321-.50495322-.8671183-.5057421-.35884509-.00078889-.69060211.19075673-.86933356.50192468s-.17703252.694247.00445186 1.00381742l2 3.464c.27800577.47421361.88664704.63512861 1.3626943.36027453.4760473-.27485408.640996-.88241457.3693057-1.36027453z"/><path id="Shape" d="m18.5 7.206c.3576137.00034843.6881932-.19029718.867-.5l2-3.464c.1814844-.30957042.1831833-.69264947.0044519-1.00381742-.1787315-.31116795-.5104885-.50271357-.8693336-.50192468-.3588451.00078888-.6897567.19379132-.8671183.5057421l-2 3.464c-.1785415.30924248-.1786393.6902222-.0002566.99955632.1783827.30933411.5081742.50007763.8652566.50044368z"/></g></g></svg>