<svg height="512" viewBox="0 0 54 60" width="512" xmlns="http://www.w3.org/2000/svg"><g id="Page-1" fill="none" fill-rule="evenodd"><g id="039---Tickets" fill="rgb(0,0,0)" fill-rule="nonzero"><path id="Shape" d="m52.468 12.929c-.6803941-.1879956-1.2120044-.7196059-1.4-1.4-.2238424-.8906165-1.019744-1.5185493-1.938-1.529h-15.13v-5.13c-.0087451-.92049485-.6387197-1.71865453-1.532-1.941-.6803941-.18799559-1.2120044-.71960591-1.4-1.4-.2238424-.89061654-1.019744-1.51854929-1.938-1.529h-24.26c-.92037101.00909639-1.71834163.63892174-1.941 1.532-.18817369.68029033-.71970967 1.21182631-1.4 1.4-.89101889.2232206-1.51924761 1.01949742-1.529 1.938v40.26c.00874511.9204948.63871968 1.7186545 1.532 1.941.68039409.1879956 1.21200441.7196059 1.4 1.4.22384236.8906165 1.01974404 1.5185493 1.938 1.529h15.13v5.13c.0087451.9204948.6387197 1.7186545 1.532 1.941.6803941.1879956 1.2120044.7196059 1.4 1.4.2238424.8906165 1.019744 1.5185493 1.938 1.529h24.26c.920371-.0090964 1.7183416-.6389217 1.941-1.532.1881737-.6802903.7197097-1.2118263 1.4-1.4.8910189-.2232206 1.5192476-1.0194974 1.529-1.938v-40.26c-.0087451-.9204948-.6387197-1.7186545-1.532-1.941zm-47.612 35.009c-.38621252-1.3765176-1.47313462-2.4451721-2.856-2.808l.063-40.273c1.3760655-.38724038 2.44411301-1.47431261 2.807-2.857l24.274.063c.3865177 1.37613237 1.4733854 2.44435281 2.856 2.807v5.13h-7.13c-.920371.0090964-1.7183416.6389217-1.941 1.532-.1803245.6408088-.6676671 1.1498944-1.3 1.358-6.1188742-2.3460681-13.02687884.2352664-16.10784176 6.0190648-3.08096293 5.7837985-1.36902275 12.9568785 3.99184176 16.7259352 2.1979954 1.5494075 4.8207918 2.3823462 7.51 2.385 1.0029565-.0028581 2.0021163-.123348 2.977-.359v10.339zm6.028-32.056c.152.4113333.2933333.8246667.424 1.24l-.993.27c-.53295477.1452509-.84725086.6950452-.70199997 1.228.14525088.5329548.69504517.8472509 1.22799997.702l.993-.27c.2041608.8706179.3637022 1.7510991.478 2.638l-1.032.092c-.5522847.0240244-.9805244.4912153-.9565 1.0435s.4912153.9805244 1.0435.9565h.089l1.042-.092c.0449994.8887641.0449994 1.7792359 0 2.668l-1.042-.093c-.5470589-.0391426-1.026616.3625527-1.084.908-.0235863.2643125.0588499.5271619.2291549.7306653.1703051.2035033.4145128.3309716.6788451.3543347l1.032.091c-.1143862.8872176-.2739266 1.7680273-.478 2.639l-.993-.27c-.5329548-.1452509-1.08274911.1690452-1.228.702s.16904522 1.0827491.702 1.228l.993.269c-.1293333.412-.269.8216667-.419 1.229-.074-.049-.152-.088-.225-.139-2.94349304-2.0415439-4.688981-5.4049016-4.664-8.987-.00279539-3.6711394 1.83013193-7.1005599 4.884-9.138zm2.357 17.553 1.045.284c.5329548.1452509 1.0827491-.1690452 1.228-.702s-.1690452-1.0827491-.702-1.228l-1.047-.284c.2336077-.9855633.4138697-1.983013.54-2.988l1.074.095c.0296478.001496.0593522.001496.089 0 .5522847.0240244 1.0194756-.4042153 1.0435-.9565s-.4042153-1.0194756-.9565-1.0435l-1.065-.094c.0540005-1.0062761.0540005-2.0147239 0-3.021l1.065-.094c.5433144-.056499.940763-.5385226.8926877-1.0826471-.0480752-.5441245-.5238837-.9489928-1.0686877-.9093529l-1.074.095c-.1260523-1.0046686-.3063152-2.0017896-.54-2.987l1.047-.285c.3523584-.0870932.6298609-.3582748.7250484-.7085333.0951874-.3502585-.0068867-.7245951-.2666957-.9780531-.259809-.2534581-.6365567-.3462386-.9843527-.2424136l-1.046.295c-.174-.558-.371-1.112-.58-1.663 2.331532-1.0173091 4.9454471-1.1871127 7.389-.48-.0308453.1355546-.0472699.273991-.049.413v20.712c-2.4290302.6946114-5.0239193.523881-7.341-.483.21-.552.407-1.106.582-1.664zm38.7 21.708c-1.3776063.3860202-2.4473898 1.4733099-2.811 2.857l-24.274-.062c-.3862125-1.3765176-1.4731346-2.4451721-2.856-2.808l.063-40.273c1.3760655-.3872404 2.444113-1.4743126 2.807-2.857l24.274.063c.3865177 1.3761324 1.4733854 2.4443528 2.856 2.807z"/><path id="Shape" d="m43.062 21.664-6.075 6.083-6.087-6.082c-.9019043-.8579056-2.3180957-.8579056-3.22 0l-4.02 4.019c-.8880116.8896615-.8880116 2.3303385 0 3.22l6.954 6.954c.094.094.2.194.3.293-1.13418 1.5069442-2.3704163 2.9342959-3.7 4.272l-.214.219c-.6706831-.1780694-1.385518.0121475-1.879.5l-1.547 1.558c-.7633517.768292-.7633517 2.008708 0 2.777l2.964 2.964c.7680665.7638984 2.0089335.7638984 2.777 0l1.551-1.551c.5015882-.5066918.6884697-1.245793.488-1.93l.9-.914c1.4344255-1.4422806 3.0248771-2.7204778 4.742-3.811 1.7041324 1.0903374 3.2832781 2.3646533 4.709 3.8l.911.924c-.2011753.6853057-.0138503 1.425795.489 1.933l1.549 1.55c.7684088.7640143 2.0095912.7640143 2.778 0l2.968-2.97c.7632356-.7679499.7632356-2.0080501 0-2.776l-1.549-1.55c-.49633-.4741346-1.2011288-.6606213-1.867-.494l-.23-.23c-1.3314027-1.3374464-2.569319-2.764809-3.705-4.272.1-.1.207-.2.3-.293l6.964-6.957c.8703522-.8966777.867691-2.3235751-.006-3.217l-4.027-4.027c-.8979837-.8688632-2.3243474-.8653172-3.218.008zm-17.984 5.826c-.1041289-.1099215-.1041289-.2820785 0-.392l4.02-4.02c.0447006-.0640605.1178854-.1022338.196-.1022338s.1512994.0381733.196.1022338l6.954 6.954c1.3845105 1.5335267 2.5612721 3.2425209 3.5 5.083.0200588.0348023.042443.0682115.067.1.216.375.467.762.73 1.151l-2.37 2.371c-.382-.249-.763-.5-1.15-.72-.0321015-.0238119-.065485-.045845-.1-.066l-.541-.307c-1.3409083-.7242043-2.6128597-1.5693825-3.8-2.525-.264286-.2071357-.5141947-.4319867-.748-.673zm2.875 19.532-2.964-2.912 1.525-1.525 2.938 2.888zm2.883-4.393-.719.732-1.5-1.5.022-.022c1.3769595-1.3838392 2.6560434-2.8617357 3.828-4.423.8427133.6003422 1.7158768 1.1567503 2.616 1.667-1.5195079 1.0517656-2.9409455 2.238584-4.247 3.546zm18.144 1.43-2.913 2.963-1.549-1.5 2.938-2.939zm-3.624-2.2-1.5 1.5-.733-.743c-.97235-.9680236-2.0047287-1.8738181-3.091-2.712l1.903-1.904c1.0576165 1.3444605 2.1928844 2.6259775 3.4 3.838zm3.537-14.365-6.961 6.95-.028.027c-.065-.107-.139-.218-.2-.324-.0202208-.0344741-.0422516-.0678541-.066-.1-.9210577-1.7234333-2.0168153-3.3476343-3.27-4.847l6.1-6.111c.1120894-.1038713.2843449-.1068858.4-.007l4.013 4.013c.104155.1105086.109308.2814171.012.398z"/><path id="Shape" d="m26 18h8c.5522847 0 1-.4477153 1-1s-.4477153-1-1-1h-8c-.5522847 0-1 .4477153-1 1s.4477153 1 1 1z"/><path id="Shape" d="m48 52h-12c-.5522847 0-1 .4477153-1 1s.4477153 1 1 1h12c.5522847 0 1-.4477153 1-1s-.4477153-1-1-1z"/><path id="Shape" d="m38 18h2c.5522847 0 1-.4477153 1-1s-.4477153-1-1-1h-2c-.5522847 0-1 .4477153-1 1s.4477153 1 1 1z"/></g></g></svg>